<?xml version="1.0" encoding="UTF-8" standalone="no"?>
<svg
   width="24"
   height="24"
   viewBox="0 0 24 24"
   fill="none"
   stroke="#F4EDE8"
   stroke-width="2"
   stroke-linecap="round"
   stroke-linejoin="round"
   class="feather feather-github"
   version="1.1"
   id="svg4"
   sodipodi:docname="scholar.svg"
   inkscape:version="1.1.1 (3bf5ae0d25, 2021-09-20)"
   xmlns:inkscape="http://www.inkscape.org/namespaces/inkscape"
   xmlns:sodipodi="http://sodipodi.sourceforge.net/DTD/sodipodi-0.dtd"
   xmlns="http://www.w3.org/2000/svg"
   xmlns:svg="http://www.w3.org/2000/svg">
  <defs
     id="defs8" />
  <sodipodi:namedview
     id="namedview6"
     pagecolor="#ffffff"
     bordercolor="#666666"
     borderopacity="1.0"
     inkscape:pageshadow="2"
     inkscape:pageopacity="0.0"
     inkscape:pagecheckerboard="0"
     showgrid="false"
     inkscape:zoom="17.166667"
     inkscape:cx="13.514563"
     inkscape:cy="9.6407767"
     inkscape:window-width="1920"
     inkscape:window-height="1009"
     inkscape:window-x="-6"
     inkscape:window-y="-8"
     inkscape:window-maximized="1"
     inkscape:current-layer="svg4" />
  <path
     style="fill:#000000;stroke:none;stroke-width:2"
     d="m 11.8511,24.246807 c -0.47913,-0.02065 -0.995907,-0.0634 -1.258386,-0.104411 -0.475252,-0.07425 -0.678823,-0.113726 -1.0554238,-0.204692 -0.1637127,-0.03956 -0.3373736,-0.07803 -0.3858862,-0.0855 -0.048515,-0.0075 -0.094888,-0.02452 -0.1030685,-0.03767 -0.00826,-0.01316 -0.040077,-0.024 -0.070889,-0.024 -0.050399,0 -0.4133695,-0.108126 -0.5496892,-0.163764 -0.114088,-0.04655 -0.5440791,-0.195015 -0.6021322,-0.207918 -0.033496,-0.0075 -0.060902,-0.02426 -0.060902,-0.03742 0,-0.01317 -0.023741,-0.024 -0.052515,-0.024 -0.028877,0 -0.06005,-0.01213 -0.069263,-0.02707 -0.00929,-0.01496 -0.033625,-0.02707 -0.054296,-0.02707 -0.053573,0 -1.0500196,-0.474919 -1.1364462,-0.541645 -0.014967,-0.01161 -0.075766,-0.04826 -0.1353005,-0.08173 -0.059534,-0.03344 -0.162267,-0.09119 -0.2282786,-0.128322 C 5.9010406,22.4461 5.4391301,22.143368 5.3759417,22.084498 c -0.031354,-0.02922 -0.066037,-0.05313 -0.077056,-0.05313 -0.011097,0 -0.036129,-0.01574 -0.055793,-0.03513 -0.019612,-0.01935 -0.095069,-0.07572 -0.1675578,-0.125313 -0.6239303,-0.427021 -1.7280056,-1.493072 -2.2450116,-2.167692 -0.066993,-0.08743 -0.2470401,-0.311063 -0.260823,-0.323958 -0.008,-0.0075 -0.026632,-0.03304 -0.041522,-0.05685 C 2.4420383,19.18457 2.3414983,19.039177 2.3242342,19.027458 2.2980412,19.009648 1.8883954,18.360941 1.837243,18.256189 1.815566,18.211539 1.791489,18.168909 1.784032,18.161479 1.76029,18.137739 1.648938,17.936736 1.574204,17.78261 1.534514,17.70076 1.492399,17.62971 1.480632,17.624755 c -0.011871,-0.0049 -0.021419,-0.01987 -0.021419,-0.03316 0,-0.01316 -0.060902,-0.152616 -0.1353005,-0.309616 -0.074425,-0.157004 -0.1353004,-0.291396 -0.1353004,-0.298639 0,-0.0072 -0.025548,-0.07089 -0.056824,-0.141417 -0.067637,-0.152642 -0.089057,-0.205622 -0.13393278,-0.331216 -0.0185803,-0.0521 -0.0494442,-0.131249 -0.0684633,-0.175893 -0.033264,-0.07803 -0.14642274,-0.414704 -0.2381886,-0.7087 -0.0239992,-0.07722 -0.0438183,-0.164798 -0.0438183,-0.194603 0,-0.02981 -0.0108389,-0.06091 -0.0239992,-0.06908 -0.0131613,-0.0083 -0.0307605,-0.05458 -0.0389147,-0.10307 C 0.5625349,15.128415 0.49709157,14.835799 0.4597504,14.700801 0.41379011,14.53461 0.37949399,14.336391 0.29536671,13.75039 0.23802591,13.351084 0.21756191,12.936283 0.21720061,12.167256 0.2167903,11.292462 0.24796131,10.831606 0.3462302,10.259375 0.3601655,10.177525 0.3851197,10.027767 0.4014291,9.9266237 0.4325768,9.7334148 0.52333625,9.3297458 0.56738697,9.1885022 c 0.0141931,-0.045702 0.0259087,-0.1037139 0.0259087,-0.1289005 0,-0.02529 0.0110966,-0.066941 0.0245156,-0.092798 0.0361784,-0.069211 0.11073215,-0.3296296 0.11073215,-0.3867794 0,-0.027173 0.0121285,-0.056954 0.0270709,-0.066141 0.0149673,-0.00929 0.0270699,-0.040516 0.0270699,-0.069624 0,-0.029083 0.0105802,-0.074037 0.0234838,-0.099894 0.0129026,-0.025858 0.0444382,-0.1078946 0.0700374,-0.182293 C 0.98809981,7.8366721 1.041131,7.7014129 1.0600467,7.692995 1.0711437,7.688085 1.0804327,7.66657 1.0804327,7.64528 c 0,-0.021419 0.011097,-0.059844 0.024773,-0.085701 0.067069,-0.127378 0.1646933,-0.3641974 0.1646933,-0.3995384 0,-0.02191 0.012128,-0.039852 0.027071,-0.039852 0.014967,0 0.027071,-0.02436 0.027071,-0.054123 0,-0.029767 0.011097,-0.054125 0.025032,-0.054125 0.013677,0 0.032903,-0.036394 0.042683,-0.080875 0.00981,-0.044482 0.029006,-0.087823 0.042735,-0.096315 0.013677,-0.00849 0.025032,-0.039075 0.025032,-0.067966 0,-0.028889 0.00929,-0.052528 0.020386,-0.052528 0.011354,0 0.037522,-0.039578 0.058373,-0.087951 C 1.559185,6.5779326 1.596732,6.507908 1.621816,6.4706984 1.6468481,6.4334876 1.7026396,6.3360622 1.7456586,6.2542007 1.7887028,6.172336 1.8758495,6.0230339 1.9393579,5.922413 2.0028659,5.8217931 2.0548136,5.7284273 2.0548136,5.714936 c 0,-0.013497 0.00981,-0.028588 0.022193,-0.033551 C 2.0891353,5.676428 2.1575468,5.5810314 2.2290295,5.4694 2.345311,5.28776 2.6128823,4.9089951 2.6496144,4.8740335 c 0.00774,-0.00743 0.074631,-0.092687 0.1484614,-0.189436 0.073831,-0.096746 0.1408229,-0.1819937 0.1488485,-0.1894361 0.008,-0.00743 0.087405,-0.098778 0.1764093,-0.2029662 C 3.2875872,4.0999133 3.5155051,3.851841 3.6678323,3.6995327 3.914124,3.4532746 4.2768236,3.1142413 4.3951695,3.0196634 4.5307538,2.9112992 4.6619124,2.8009041 4.7175474,2.7482969 4.7340631,2.7326585 4.8206677,2.6664508 4.909982,2.6011541 4.9992963,2.5358549 5.0764045,2.4725322 5.081385,2.460437 5.086295,2.448334 5.102545,2.438451 5.117151,2.438451 c 0.01471,0 0.045599,-0.018864 0.068669,-0.041919 0.05458,-0.054577 0.778469,-0.5316879 0.9013878,-0.5940949 0.052102,-0.026449 0.1007979,-0.055524 0.1082558,-0.06461 0.038503,-0.047006 0.8407723,-0.4630456 0.8929157,-0.4630456 0.014967,0 0.027199,-0.01218 0.027199,-0.027063 0,-0.01489 0.017032,-0.027063 0.038038,-0.027063 0.020903,0 0.084849,-0.023199 0.1420616,-0.051552 C 7.3528904,1.140748 7.4666948,1.0906683 7.5485512,1.0578152 7.6304076,1.0249621 7.7460955,0.9762217 7.8056297,0.94951034 7.93484,0.89152996 8.1554393,0.8112603 8.4686509,0.70824828 8.8799378,0.57297882 8.9786533,0.54410457 9.0298625,0.54410457 c 0.027716,0 0.06196,-0.009961 0.076102,-0.0221157 0.025032,-0.0215479 0.2001249,-0.06628 0.3910474,-0.0998947 0.052102,-0.009161 0.1251587,-0.0278781 0.1623709,-0.0415707 0.037212,-0.0137029 0.1772608,-0.04411 0.311218,-0.067596 0.1339582,-0.0234834 0.3044472,-0.0545279 0.3788692,-0.0689818 0.158448,-0.0307736 0.459821,-0.0683469 0.838925,-0.10459397 0.345004,-0.0329852 1.8015,-0.0329567 2.192032,4.569e-5 0.374459,0.0316433 0.690826,0.0749249 1.150139,0.15734642 0.258337,0.0463577 0.852666,0.1854568 0.933642,0.21851419 0.02978,0.0121546 0.145468,0.0435837 0.257079,0.0698488 0.111636,0.0262653 0.214524,0.0582311 0.228666,0.0710334 0.01419,0.0128001 0.04779,0.0232768 0.07478,0.0232768 0.02699,0 0.07022,0.0109931 0.09607,0.0244121 0.02583,0.0134449 0.17486,0.0688938 0.331143,0.12324901 0.156281,0.0543519 0.330972,0.12251865 0.388195,0.15148069 0.05721,0.0289617 0.115817,0.0526566 0.130216,0.0526566 0.05669,0 0.950914,0.4342457 1.254154,0.6090398 0.104179,0.060056 0.235093,0.1330295 0.290918,0.1621618 0.05582,0.029133 0.101497,0.062378 0.101497,0.073877 0,0.01151 0.01239,0.020903 0.02738,0.020903 0.03242,0 0.415057,0.2479045 0.42816,0.2773867 0.0049,0.011174 0.02627,0.02031 0.04735,0.02031 0.02116,0 0.03834,0.00955 0.03834,0.021238 0,0.011664 0.03959,0.044247 0.08795,0.072383 0.04838,0.028136 0.09403,0.058853 0.101496,0.068261 0.0075,0.00942 0.08069,0.065127 0.16281,0.1238168 0.229207,0.1638495 0.513748,0.398013 0.513748,0.4227817 0,0.012206 0.01213,0.022219 0.02687,0.022219 0.03618,0 0.08719,0.044159 0.625301,0.5412422 0.04028,0.037209 0.101828,0.09311 0.136771,0.124222 0.03494,0.031111 0.154863,0.1577256 0.266496,0.2813655 0.111636,0.1236387 0.243685,0.2686763 0.293478,0.3223032 0.04978,0.053627 0.20766,0.2436388 0.350815,0.4222493 0.143172,0.1786106 0.266839,0.3308344 0.274826,0.3382764 0.008,0.00743 0.02671,0.033021 0.04157,0.056843 0.08394,0.1343534 0.186525,0.2832099 0.203247,0.2949661 0.07879,0.055361 0.620598,0.9705025 0.873226,1.4748851 0.245491,0.4901359 0.614905,1.3768147 0.614905,1.475912 0,0.023225 0.01035,0.053831 0.02271,0.067973 0.01265,0.014193 0.04382,0.098785 0.0695,0.1880736 0.02555,0.089314 0.05801,0.1903444 0.0719,0.2245372 0.01394,0.034192 0.02529,0.089598 0.02529,0.1231458 0,0.033522 0.01004,0.072541 0.02219,0.086682 0.01213,0.014193 0.036,0.086605 0.05293,0.1610289 0.01703,0.074424 0.06072,0.2631791 0.09723,0.4194623 0.03654,0.1562806 0.07928,0.357221 0.09497,0.446525 0.161415,0.9185982 0.201388,1.4558052 0.181234,2.4355902 -0.0088,0.43164 -0.02829,0.888315 -0.04313,1.014828 -0.0399,0.340319 -0.07453,0.590422 -0.1049,0.757742 -0.01497,0.08185 -0.04026,0.225906 -0.05644,0.32012 -0.01626,0.09419 -0.0606,0.295137 -0.09865,0.446526 -0.03809,0.151377 -0.07513,0.305691 -0.0823,0.342901 -0.0072,0.03722 -0.02322,0.09203 -0.03539,0.121778 -0.01239,0.02978 -0.04237,0.127197 -0.06692,0.216511 -0.09182,0.334329 -0.106088,0.379492 -0.127895,0.404578 -0.01239,0.01419 -0.02245,0.04779 -0.02245,0.07478 0,0.02699 -0.01084,0.07022 -0.024,0.09607 -0.03981,0.07827 -0.0799,0.178525 -0.09989,0.249956 -0.01035,0.03722 -0.04679,0.128745 -0.0808,0.203428 -0.03401,0.07468 -0.08666,0.198732 -0.116978,0.275682 -0.03032,0.07696 -0.105392,0.246163 -0.166809,0.376052 -0.06142,0.129881 -0.122552,0.261561 -0.135869,0.292621 -0.01342,0.03107 -0.06121,0.117365 -0.106423,0.191789 -0.04522,0.07442 -0.116101,0.202293 -0.157494,0.284152 -0.04139,0.08185 -0.120307,0.219092 -0.175376,0.304974 -0.05507,0.08588 -0.100131,0.168074 -0.100131,0.18268 0,0.01471 -0.01213,0.02652 -0.02707,0.02652 -0.01497,0 -0.02707,0.01342 -0.02707,0.02988 0,0.01652 -0.08524,0.150809 -0.189441,0.29861 -0.104178,0.147816 -0.189441,0.279478 -0.189441,0.292613 0,0.01316 -0.009,0.02794 -0.02039,0.0329 -0.01109,0.0049 -0.09336,0.10645 -0.18268,0.225517 -0.08931,0.119069 -0.186732,0.24237 -0.216486,0.273982 -0.02978,0.03162 -0.07848,0.09158 -0.108256,0.133288 -0.140203,0.196332 -0.709882,0.798437 -1.113693,1.17709 -0.120255,0.112747 -0.379739,0.334931 -0.641512,0.549256 -0.05742,0.04702 -0.118836,0.09907 -0.136461,0.115637 -0.04598,0.04325 -0.935415,0.659937 -0.95182,0.659937 -0.0075,0 -0.07701,0.04263 -0.154346,0.09471 -0.07736,0.0521 -0.155016,0.09471 -0.172589,0.09471 -0.01755,0 -0.036,0.01084 -0.04095,0.024 -0.0083,0.02167 -0.102573,0.07589 -0.48261,0.276869 -0.06697,0.03544 -0.125828,0.07354 -0.13081,0.0847 -0.0049,0.0111 -0.02374,0.02039 -0.04188,0.02039 -0.01806,0 -0.111429,0.04023 -0.207479,0.08939 -0.09605,0.04916 -0.272038,0.129649 -0.391112,0.178861 -0.119068,0.04921 -0.277388,0.116901 -0.351806,0.150422 -0.07442,0.03352 -0.165752,0.06957 -0.202964,0.08007 -0.09845,0.02782 -0.357649,0.123919 -0.41233,0.152874 -0.02585,0.01368 -0.0695,0.02478 -0.09697,0.02478 -0.02749,0 -0.05909,0.009 -0.07027,0.02039 -0.01832,0.01832 -0.193725,0.06841 -0.367613,0.104902 -0.03722,0.0078 -0.09203,0.024 -0.121778,0.03613 -0.107946,0.04374 -0.626426,0.168797 -0.906583,0.218654 -0.09675,0.01729 -0.236795,0.04297 -0.311214,0.05724 -0.348798,0.06684 -0.919997,0.124127 -1.447823,0.145185 -0.245595,0.0098 -0.47088,0.02013 -0.500647,0.02322 -0.02977,0.0028 -0.255066,-0.0033 -0.500651,-0.01393 z m 1.028361,-4.164192 c 0.570593,-0.08669 1.155492,-0.214628 1.373401,-0.300443 0.0335,-0.01317 0.08828,-0.03473 0.121779,-0.04787 0.0335,-0.01316 0.140049,-0.05581 0.236795,-0.09478 0.09675,-0.039 0.191119,-0.07086 0.209725,-0.07081 0.01858,5.5e-5 0.03399,-0.009 0.03416,-0.02013 1.9e-4,-0.01109 0.07905,-0.05683 0.175223,-0.101465 0.09618,-0.04465 0.17517,-0.09032 0.175557,-0.101497 3.8e-4,-0.01109 0.01342,-0.02039 0.02885,-0.02039 0.02426,0 0.175532,-0.09514 0.215402,-0.135455 0.0075,-0.0075 0.06224,-0.04909 0.121778,-0.09236 0.277311,-0.20157 0.798333,-0.806262 0.798333,-0.926525 0,-0.01755 0.01004,-0.03592 0.02219,-0.04088 0.05873,-0.02374 0.217363,-0.493812 0.290704,-0.861479 0.03207,-0.160796 0.04335,-0.900438 0.01548,-1.014828 -0.01445,-0.05953 -0.04067,-0.181312 -0.05816,-0.270621 -0.05858,-0.299302 -0.300908,-0.891484 -0.427672,-1.045085 -0.112333,-0.136127 -0.271782,-0.312334 -0.325764,-0.360024 -0.03502,-0.03094 -0.09166,-0.08194 -0.125855,-0.11334 -0.03419,-0.03141 -0.169957,-0.134345 -0.301671,-0.228769 -0.131713,-0.09443 -0.245569,-0.178913 -0.253001,-0.187764 -0.0075,-0.0088 -0.117056,-0.088 -0.243556,-0.175842 -0.126527,-0.08784 -0.236125,-0.166422 -0.243557,-0.174576 -0.0075,-0.0083 -0.09484,-0.0851 -0.194215,-0.170991 -0.174964,-0.151196 -0.439403,-0.476834 -0.499543,-0.61512 -0.06735,-0.154887 -0.09104,-0.271058 -0.09104,-0.446524 0,-0.325401 0.112876,-0.574167 0.387925,-0.854984 0.107972,-0.110243 0.231273,-0.224796 0.274007,-0.254576 0.04273,-0.02975 0.09089,-0.06673 0.107043,-0.08216 0.01626,-0.01548 0.07791,-0.06413 0.137236,-0.108257 0.05933,-0.0441 0.138501,-0.106733 0.175893,-0.139171 0.03742,-0.03244 0.09424,-0.08154 0.126269,-0.109108 0.383462,-0.330225 0.588788,-0.619127 0.751665,-1.0576212 0.02039,-0.055173 0.0466,-0.1246942 0.05801,-0.1544484 0.117597,-0.306662 0.149364,-0.7501108 0.07948,-1.109546 -0.02604,-0.1339585 -0.05806,-0.2551174 -0.07115,-0.2692667 -0.01316,-0.014193 -0.02374,-0.053883 -0.02374,-0.088308 0,-0.034425 -0.01109,-0.083766 -0.02478,-0.1095977 -0.02503,-0.047328 -0.108798,-0.322014 -0.167171,-0.5476403 -0.01729,-0.066967 -0.03701,-0.1894929 -0.04372,-0.2722757 -0.01187,-0.147264 -0.0098,-0.1530755 0.104952,-0.2706217 0.157959,-0.1619632 0.248563,-0.2372054 0.572219,-0.4752351 0.405602,-0.2982983 0.426922,-0.3148327 0.845014,-0.6553426 0.408791,-0.3329343 0.833198,-0.607085 0.87504,-0.565243 0.01729,0.017186 0.03045,0.1195434 0.03045,0.2349913 0,0.1993197 -0.06186,0.4312507 -0.195196,0.7318076 -0.131558,0.2965541 -0.160229,0.5264376 -0.135042,1.0824857 0.0273,0.6024469 0.02374,1.0187273 -0.01471,1.6603682 -0.08206,1.3746766 -0.07207,2.4153276 0.02744,2.8586196 0.05832,0.259834 0.26873,0.406315 0.583632,0.406315 0.07243,0 0.173106,-0.01368 0.223685,-0.03038 0.104309,-0.03445 0.240821,-0.162139 0.240821,-0.225235 0,-0.02322 0.01004,-0.04206 0.02245,-0.04206 0.01239,0 0.04389,-0.111405 0.07009,-0.247556 0.08748,-0.454709 0.05745,-1.8591695 -0.0695,-3.2473808 -0.02039,-0.2235825 -0.02348,-0.4580808 -0.0088,-0.6765511 0.02818,-0.4175037 0.02942,-1.2003489 0.0021,-1.308598 -0.01135,-0.044652 -0.02998,-0.1055411 -0.04154,-0.1353108 -0.03414,-0.087794 -0.113081,-0.3127697 -0.170964,-0.4871179 -0.02965,-0.089304 -0.06464,-0.1835188 -0.07775,-0.2093634 -0.033,-0.06499 -0.03024,-0.5818246 0.0031,-0.6024993 0.01497,-0.00919 0.02707,-0.04645 0.02707,-0.082783 0,-0.036332 0.0093,-0.066058 0.02065,-0.066058 0.01135,0 0.03267,-0.027249 0.04735,-0.060551 0.01471,-0.033302 0.148487,-0.1615812 0.297336,-0.2850591 0.148848,-0.1234787 0.281614,-0.2484542 0.295052,-0.2777249 0.01342,-0.029269 0.03476,-0.053217 0.04735,-0.053217 0.01265,0 0.02297,-0.018271 0.02297,-0.040592 0,-0.03592 -0.507095,-0.04051 -4.404361,-0.03987 l -4.404358,7.226e-4 -0.110733,0.1007596 C 10.286032,4.4286371 10.034062,4.6500237 9.730525,4.9123076 9.5988115,5.0261324 9.4755883,5.1341327 9.4567397,5.152313 9.4379013,5.1704803 9.3933346,5.2097208 9.3577223,5.2394905 9.1356882,5.4251692 8.963044,5.5726565 8.9028001,5.62813 8.8646332,5.6632724 8.7742867,5.7424295 8.7020301,5.8040335 8.6297735,5.8656398 8.5492591,5.9343094 8.5231177,5.9566367 8.3901914,6.0701182 8.1549292,6.2756908 8.0895008,6.3355063 8.0488049,6.3727158 7.9560069,6.4518729 7.8832857,6.5114097 7.7739461,6.6009331 7.5186584,6.824865 7.4667756,6.8767482 7.459293,6.8841791 7.3801709,6.9510331 7.2908567,7.0252871 7.2015425,7.0995409 7.1149636,7.172608 7.0984219,7.1876606 7.0819064,7.2027055 7.0270939,7.2505569 6.9766439,7.2939861 6.9261937,7.3374173 6.8358984,7.4165642 6.7759512,7.4698792 6.7160299,7.5231943 6.5886003,7.6337984 6.4927803,7.7156548 6.3145647,7.8679097 5.9079305,8.2202533 5.8531316,8.2698833 5.8363577,8.2851088 5.7516628,8.3583718 5.6649291,8.4327961 5.3873296,8.6709331 5.2747255,8.7773671 5.2747255,8.8015833 c 0,0.013161 0.7385757,0.023484 1.6732041,0.023484 h 1.6732015 l 0.031716,0.1373649 c 0.017548,0.07556 0.031716,0.1804608 0.031716,0.2331048 0,0.1070688 0.1222426,0.6454293 0.1631192,0.7183955 0.014451,0.025858 0.026323,0.065599 0.026323,0.08831 0,0.02271 0.010838,0.06248 0.023999,0.08831 0.013161,0.02586 0.052773,0.113546 0.087946,0.194886 0.061908,0.14312 0.3081587,0.568804 0.3449503,0.596303 0.01006,0.0075 0.059173,0.06627 0.1093396,0.130707 0.077882,0.100026 0.2480208,0.256407 0.5175044,0.475672 0.087949,0.07156 0.6105114,0.340788 0.6614524,0.340788 0.02296,0 0.06279,0.01135 0.08864,0.02555 0.04309,0.02348 0.228795,0.07798 0.466454,0.13721 0.220976,0.05507 1.021184,0.142165 1.171819,0.127559 0.108539,-0.01058 0.148229,0.01522 0.107094,0.06952 -0.03561,0.047 -0.107481,0.260211 -0.12503,0.370919 -0.0083,0.0521 -0.02245,0.131248 -0.03146,0.175893 -0.024,0.118191 0.09481,0.743982 0.153777,0.810509 0.01265,0.0142 0.02271,0.04764 0.02271,0.07442 0,0.02679 0.0098,0.04873 0.02168,0.04873 0.01187,0 0.03682,0.04206 0.05543,0.09347 0.01858,0.05141 0.08838,0.173182 0.155094,0.270621 l 0.121288,0.177157 -0.156435,0.002 c -0.08604,0.0011 -0.180771,0.0064 -0.21055,0.01161 -0.02978,0.0054 -0.248977,0.02245 -0.487118,0.03822 -0.238138,0.01574 -0.457351,0.03321 -0.487118,0.03897 -0.02979,0.0057 -0.127198,0.01909 -0.216512,0.02934 -0.08932,0.01035 -0.205002,0.02932 -0.257078,0.04211 -0.0521,0.0129 -0.167791,0.03758 -0.257079,0.05507 -0.08932,0.01755 -0.186732,0.04137 -0.216485,0.05303 -0.02979,0.01161 -0.133288,0.04219 -0.230035,0.06782 -0.255117,0.06753 -0.3093023,0.08906 -0.8253949,0.327539 -0.1441776,0.06663 -0.5191556,0.291902 -0.554773,0.333291 -0.00748,0.0088 -0.074424,0.06412 -0.1488485,0.123301 -0.1661385,0.132075 -0.3703201,0.340472 -0.5141803,0.524784 -0.1473518,0.18877 -0.4162288,0.629189 -0.418012,0.684671 -8e-4,0.02478 -0.010839,0.04916 -0.022193,0.05412 -0.026735,0.01161 -0.1146298,0.294134 -0.1146298,0.368376 0,0.03131 -0.012128,0.06443 -0.027071,0.07365 -0.037703,0.02322 -0.034373,0.649989 0.00413,0.769347 0.064747,0.200951 0.1676611,0.476027 0.182964,0.489039 0.00878,0.0075 0.064618,0.08629 0.1241523,0.175223 0.059534,0.08892 0.1630418,0.221235 0.2300339,0.293999 0.1213137,0.131791 0.5017367,0.442406 0.6135512,0.50095 0.032335,0.01703 0.07494,0.04635 0.094707,0.06537 0.040618,0.03907 0.5542622,0.291281 0.6989611,0.34319 0.1173653,0.04211 0.1836091,0.0674 0.2706221,0.103349 0.3397629,0.140384 0.8253889,0.249362 1.4748829,0.330975 0.244511,0.03074 1.239053,0.01265 1.501948,-0.02728 z M 11.878163,19.433446 C 11.516716,19.376856 11.109882,19.276185 10.930988,19.199077 10.580942,19.048216 10.487121,19.000604 10.283474,18.870488 10.158031,18.790363 9.963197,18.631551 9.8504786,18.517574 9.6014257,18.26576 9.5848428,18.244204 9.4829198,18.039738 9.438405,17.950423 9.395128,17.871277 9.3867667,17.863845 9.3600581,17.840104 9.2804206,17.558264 9.252963,17.390257 9.20148,17.07535 9.239544,16.560758 9.331103,16.334834 c 0.049109,-0.12121 0.2226792,-0.449903 0.2608668,-0.494004 0.2363564,-0.273002 0.4824642,-0.490786 0.6396662,-0.566049 0.05685,-0.02723 0.103508,-0.05618 0.103689,-0.06438 2.92e-4,-0.01394 0.376248,-0.196331 0.507723,-0.246189 0.0335,-0.01265 0.08828,-0.03404 0.121778,-0.04743 0.139972,-0.056 0.428386,-0.126191 0.778036,-0.189389 0.634601,-0.114682 1.079366,-0.09551 1.7861,0.07706 0.317304,0.07747 0.820911,0.319087 1.123078,0.53882 0.236047,0.17166 0.500648,0.415537 0.500648,0.461445 0,0.01368 0.009,0.02903 0.02039,0.03399 0.03285,0.01471 0.169132,0.205777 0.169132,0.237234 0,0.016 0.01004,0.02887 0.02219,0.02887 0.03084,0 0.120695,0.215532 0.197492,0.473589 0.05538,0.186086 0.06441,0.273542 0.06441,0.622428 0,0.355935 -0.008,0.429263 -0.06423,0.595369 -0.07809,0.230369 -0.19819,0.464214 -0.288325,0.561422 -0.0368,0.03969 -0.06692,0.07959 -0.06692,0.08864 0,0.05799 -0.574321,0.527135 -0.645321,0.527135 -0.01471,0 -0.03079,0.0095 -0.03574,0.02142 -0.0095,0.02297 -0.306748,0.168049 -0.34388,0.168049 -0.01213,0 -0.06198,0.01987 -0.110682,0.04415 -0.04869,0.02426 -0.132745,0.05543 -0.186834,0.06919 -0.05407,0.01367 -0.140927,0.03726 -0.193029,0.0522 -0.313511,0.08996 -0.475237,0.10805 -1.055423,0.117959 -0.334894,0.0057 -0.675878,-7.9e-5 -0.757739,-0.0129 z m 0.663021,-7.724621 c -0.472446,-0.09801 -1.060398,-0.486247 -1.428052,-0.942993 -0.04807,-0.05974 -0.119327,-0.146371 -0.15832,-0.192512 -0.09319,-0.110295 -0.302922,-0.439436 -0.350911,-0.550724 -0.02091,-0.048363 -0.04712,-0.08795 -0.05837,-0.08795 -0.01135,0 -0.02039,-0.018323 -0.02039,-0.040954 0,-0.022451 -0.01161,-0.062115 -0.0258,-0.087946 -0.03181,-0.058089 -0.09244,-0.2054667 -0.136178,-0.3311441 -0.01806,-0.052102 -0.04374,-0.1190686 -0.05693,-0.1488485 -0.05892,-0.1330554 -0.160023,-0.7628255 -0.159997,-0.9967175 7e-6,-0.3706865 0.08857,-0.7951888 0.21966,-1.0528688 0.01316,-0.025844 0.024,-0.059919 0.024,-0.075722 0,-0.015793 0.04263,-0.095358 0.09471,-0.1767964 0.0521,-0.081435 0.09471,-0.1538265 0.09471,-0.1608663 0,-0.019612 0.114036,-0.1504975 0.186267,-0.2137969 0.03549,-0.031078 0.08026,-0.071727 0.09956,-0.090331 0.01935,-0.018606 0.0481,-0.033829 0.06405,-0.033829 0.016,0 0.02901,-0.010194 0.02901,-0.022632 0,-0.026154 0.268448,-0.1667991 0.318368,-0.1667991 0.01832,0 0.03345,-0.010787 0.03345,-0.023999 0,-0.025969 0.0433,-0.037214 0.349691,-0.090814 0.138035,-0.024154 0.281909,-0.028683 0.460054,-0.014503 0.246164,0.019586 0.313689,0.035225 0.502769,0.1163691 0.289381,0.1241885 0.386854,0.1771758 0.484305,0.2632615 0.0295,0.026046 0.06544,0.047359 0.07987,0.047359 0.04534,0 0.65096,0.6320423 0.707127,0.7379852 0.02942,0.055509 0.06291,0.1009531 0.07442,0.1009531 0.01161,0 0.02091,0.01729 0.02091,0.038348 0,0.02116 0.009,0.042399 0.02039,0.047354 0.04888,0.021677 0.358573,0.6535917 0.358573,0.7316081 0,0.020903 0.01035,0.049418 0.02297,0.06356 0.02322,0.026012 0.05515,0.1454679 0.163609,0.6146995 0.03827,0.1656224 0.03871,0.8592236 6.01e-4,1.0045374 -0.109855,0.4189467 -0.141803,0.5189097 -0.21904,0.6850597 -0.03323,0.07145 -0.07012,0.13401 -0.08199,0.138965 -0.01187,0.0049 -0.02167,0.02039 -0.02167,0.0344 0,0.01393 -0.0335,0.07672 -0.07442,0.139481 -0.404952,0.620793 -0.961038,0.874877 -1.616963,0.738818 z"
     id="path220" />
</svg>
